<?xml version="1.0" encoding="UTF-8" standalone="no"?>
<!-- Created with Inkscape (http://www.inkscape.org/) -->

<svg
   xmlns:dc="http://purl.org/dc/elements/1.1/"
   xmlns:cc="http://creativecommons.org/ns#"
   xmlns:rdf="http://www.w3.org/1999/02/22-rdf-syntax-ns#"
   xmlns:svg="http://www.w3.org/2000/svg"
   xmlns="http://www.w3.org/2000/svg"
   xmlns:sodipodi="http://sodipodi.sourceforge.net/DTD/sodipodi-0.dtd"
   xmlns:inkscape="http://www.inkscape.org/namespaces/inkscape"
   width="800"
   height="1000"
   viewBox="0 0 800.00001 1000"
   id="svg6652"
   version="1.1"
   inkscape:version="0.91 r13725"
   inkscape:export-filename="D:\GIT\Bryce-Summers.github.io\ICBL_info_pages\images\future_person.png"
   inkscape:export-xdpi="90"
   inkscape:export-ydpi="90"
   sodipodi:docname="future_person.svg">
  <defs
     id="defs6654" />
  <sodipodi:namedview
     id="base"
     pagecolor="#ffffff"
     bordercolor="#666666"
     borderopacity="1.0"
     inkscape:pageopacity="0.0"
     inkscape:pageshadow="2"
     inkscape:zoom="0.7"
     inkscape:cx="463.88404"
     inkscape:cy="436.92836"
     inkscape:document-units="px"
     inkscape:current-layer="layer1"
     showgrid="false"
     units="px"
     inkscape:window-width="1920"
     inkscape:window-height="1017"
     inkscape:window-x="-8"
     inkscape:window-y="-8"
     inkscape:window-maximized="1" />
  <metadata
     id="metadata6657">
    <rdf:RDF>
      <cc:Work
         rdf:about="">
        <dc:format>image/svg+xml</dc:format>
        <dc:type
           rdf:resource="http://purl.org/dc/dcmitype/StillImage" />
        <dc:title></dc:title>
      </cc:Work>
    </rdf:RDF>
  </metadata>
  <g
     inkscape:label="Layer 1"
     inkscape:groupmode="layer"
     id="layer1"
     transform="translate(0,-52.362161)">
    <path
       style="fill:#ececec;fill-rule:evenodd;stroke:#000000;stroke-width:1px;stroke-linecap:butt;stroke-linejoin:miter;stroke-opacity:1"
       d="m -2.8571429,950.93359 c 0,0 50.6470599,-29.43191 78.5714289,-37.14286 37.817664,-10.44285 77.996504,-8.82243 117.142854,-11.42857 26.62473,-1.77252 56.79181,10.31092 80,-2.85714 16.77252,-9.51654 24.35619,-30.63088 31.42857,-48.57143 9.93455,-25.20102 15.86243,-52.95743 14.28572,-80 -1.53449,-26.31837 -10.49214,-52.43086 -22.85714,-75.71429 -12.38314,-23.31759 -27.33868,-47.88174 -50,-61.42857 -32.46487,-19.40734 -86.16563,6.72095 -111.42858,-21.42857 -46.592789,-51.91652 -19.47522,-138.85218 -17.14285,-208.57143 1.93195,-57.74983 -11.9077,-127.57242 25.71428,-171.42857 29.22356,-34.06606 83.93175,-35.32977 128.57143,-40 86.57143,-9.05715 176.20144,0.73903 260,24.28571 45.92605,12.90483 98.35515,25.9422 128.57143,62.85715 40.52952,49.51453 42.25017,122.04033 48.57143,185.71428 6.5028,65.50262 26.65458,143.45344 -11.42857,197.14286 -21.48918,30.29533 -66.0072,38.2017 -102.85715,42.85714 -42.96044,5.42741 -88.27576,-34.4244 -128.57142,-18.57143 -23.32232,9.17538 -38.37049,35.09456 -47.14286,58.57143 -13.34357,35.71046 -13.05316,77.18558 -4.28572,114.28572 3.87198,16.38458 9.84571,35.62934 24.28572,44.28571 37.57734,22.52653 87.61812,1.81028 131.42857,1.42857 50.49448,-0.43995 102.23606,-15.68673 151.42857,-4.28571 30.9178,7.16561 84.28572,44.28571 84.28572,44.28571 l -1.42858,111.4286 -805.7142814,-4.2857 z"
       id="path7200"
       inkscape:connector-curvature="0"
       sodipodi:nodetypes="csssssssssssssssssssssscccc" />
    <rect
       style="opacity:0.3037037;fill:#f9f9f9;fill-opacity:1;stroke:#000000;stroke-width:1;stroke-linejoin:round;stroke-miterlimit:4;stroke-dasharray:none;stroke-dashoffset:0;stroke-opacity:1"
       id="rect7202"
       width="795"
       height="995"
       x="2.5"
       y="54.86216" />
    <text
       xml:space="preserve"
       style="font-style:normal;font-weight:normal;font-size:180px;line-height:125%;font-family:sans-serif;letter-spacing:0px;word-spacing:0px;fill:#000000;fill-opacity:1;stroke:none;stroke-width:1px;stroke-linecap:butt;stroke-linejoin:miter;stroke-opacity:1"
       x="227.14288"
       y="479.50497"
       id="text7204"
       sodipodi:linespacing="125%"><tspan
         sodipodi:role="line"
         id="tspan7206"
         x="227.14288"
         y="479.50497">?</tspan></text>
    <text
       xml:space="preserve"
       style="font-style:normal;font-weight:normal;font-size:180px;line-height:125%;font-family:sans-serif;letter-spacing:0px;word-spacing:0px;fill:#000000;fill-opacity:1;stroke:none;stroke-width:1px;stroke-linecap:butt;stroke-linejoin:miter;stroke-opacity:1"
       x="478.80371"
       y="490.54367"
       id="text7204-3"
       sodipodi:linespacing="125%"><tspan
         sodipodi:role="line"
         id="tspan7206-9"
         x="478.80371"
         y="490.54367">?</tspan></text>
  </g>
</svg>
