<?xml version="1.0" encoding="UTF-8" standalone="no"?>
<svg
   xmlns:dc="http://purl.org/dc/elements/1.1/"
   xmlns:cc="http://creativecommons.org/ns#"
   xmlns:rdf="http://www.w3.org/1999/02/22-rdf-syntax-ns#"
   xmlns:svg="http://www.w3.org/2000/svg"
   xmlns="http://www.w3.org/2000/svg"
   xmlns:sodipodi="http://sodipodi.sourceforge.net/DTD/sodipodi-0.dtd"
   xmlns:inkscape="http://www.inkscape.org/namespaces/inkscape"
   width="500"
   height="500"
   viewBox="0 0 500 500"
   id="svg2"
   version="1.1"
   inkscape:version="0.91 r13725"
   sodipodi:docname="letters.svg">
  <metadata
     id="metadata41">
    <rdf:RDF>
      <cc:Work
         rdf:about="">
        <dc:format>image/svg+xml</dc:format>
        <dc:type
           rdf:resource="http://purl.org/dc/dcmitype/StillImage" />
      </cc:Work>
    </rdf:RDF>
  </metadata>
  <defs
     id="defs39" />
  <sodipodi:namedview
     pagecolor="#ffffff"
     bordercolor="#666666"
     borderopacity="1"
     objecttolerance="10"
     gridtolerance="10"
     guidetolerance="10"
     inkscape:pageopacity="0"
     inkscape:pageshadow="2"
     inkscape:window-width="1920"
     inkscape:window-height="1017"
     id="namedview37"
     showgrid="false"
     inkscape:zoom="1.3350176"
     inkscape:cx="290.74385"
     inkscape:cy="246.19844"
     inkscape:window-x="-8"
     inkscape:window-y="-8"
     inkscape:window-maximized="1"
     inkscape:current-layer="layer2" />
  <g
     inkscape:groupmode="layer"
     id="layer2"
     inkscape:label="Layer 2"
     style="display:inline">
    <path
       style="fill:#000000;fill-rule:evenodd;stroke:#ffffff;stroke-width:1px;stroke-opacity:1"
       d="m 1,108.86374 644.88154,0 0,233.83496 -644.88154,0 z"
       id="face 1"
       inkscape:connector-curvature="0"
       inkscape:export-xdpi="41.774017"
       inkscape:export-ydpi="41.774017" />
  </g>
  <g
     inkscape:groupmode="layer"
     id="layer1"
     inkscape:label="Layer 1"
     style="display:inline">
    <path
       inkscape:connector-curvature="0"
       style="fill:#bae3ff;fill-rule:evenodd;stroke:#000000;stroke-width:3;stroke-opacity:1;stroke-miterlimit:4;stroke-dasharray:none"
       d="m 241.28653,164.16715 -14.89479,1.42756 0.99147,9.05851 16.85048,-1.40614 z"
       id="path5"
       inkscape:export-xdpi="41.774017"
       inkscape:export-ydpi="41.774017" />
    <path
       inkscape:connector-curvature="0"
       style="fill:#bae3ff;fill-rule:evenodd;stroke:#000000;stroke-width:3;stroke-opacity:1;stroke-miterlimit:4;stroke-dasharray:none"
       d="m 279.04102,232.81229 16.37041,4.27581 18.65016,-6.91621 7.16005,-8.68906 -0.47152,-18.05692 -22.07677,-7.0696 -15.75601,4.25253 0.002,0.97482 z"
       id="path7"
       inkscape:export-xdpi="41.774017"
       inkscape:export-ydpi="41.774017" />
    <path
       inkscape:connector-curvature="0"
       style="fill:#bae3ff;fill-rule:evenodd;stroke:#000000;stroke-width:3;stroke-opacity:1;stroke-miterlimit:4;stroke-dasharray:none"
       d="m 342.97484,234.09819 25.92044,1.78762 7.16308,-9.86663 0.5993,-24.35177 -23.62794,-4.50343 -9.70468,2.487 0.37392,12.25631 z"
       id="path9"
       inkscape:export-xdpi="41.774017"
       inkscape:export-ydpi="41.774017" />
    <path
       inkscape:connector-curvature="0"
       style="fill:#bae3ff;fill-rule:evenodd;stroke:#000000;stroke-width:3;stroke-opacity:1;stroke-miterlimit:4;stroke-dasharray:none"
       d="m 443.70752,201.49033 1.18936,17.60821 3.67885,1.29945 14.7245,-2.0649 3.1546,-11.86371 -11.20184,-4.53782 z"
       id="path11"
       inkscape:export-xdpi="41.774017"
       inkscape:export-ydpi="41.774017" />
    <path
       inkscape:connector-curvature="0"
       style="fill:none;fill-rule:evenodd;stroke:#ffffff;stroke-width:3;stroke-opacity:1;stroke-miterlimit:4;stroke-dasharray:none"
       d="M 47.751465,139.28056 67,145.01562 l -19.248535,-5.73506 -26.4131,13.58818 8.717853,31.96568 23.591399,-1.23282 19.593298,9.59272 -13.053369,23.37632 -18.436525,2.1482 -16.949233,-3.98126 16.949233,3.98126 18.436525,-2.1482 13.053369,-23.37632 -19.593298,-9.59272 -23.591399,1.23282 -8.717853,-31.96568 z"
       id="path15"
       inkscape:export-xdpi="41.774017"
       inkscape:export-ydpi="41.774017" />
    <path
       inkscape:connector-curvature="0"
       style="fill:none;fill-rule:evenodd;stroke:#ffffff;stroke-width:3;stroke-opacity:1;stroke-miterlimit:4;stroke-dasharray:none"
       d="M 111.71537,189.59564 131,184.01562 l -19.28463,5.58002 -7.50623,20.51816 4.17468,14.11464 17.29614,3.92357 14.49389,-5.16221 -14.49389,5.16221 -17.29614,-3.92357 -4.17468,-14.11464 z"
       id="path17"
       inkscape:export-xdpi="41.774017"
       inkscape:export-ydpi="41.774017" />
    <path
       inkscape:connector-curvature="0"
       style="fill:none;fill-rule:evenodd;stroke:#ffffff;stroke-width:3;stroke-opacity:1;stroke-miterlimit:4;stroke-dasharray:none"
       d="m 160.32411,189.36617 -0.31355,-0.61235 -9.01056,4.2618 9.01056,-4.2618 -6.01056,-11.7382 6.01056,11.7382 8.19662,-3.87682 15.43505,-1.98436 10.70916,7.08609 -10.70916,-7.08609 -15.43505,1.98436 -8.19662,3.87682 0.31355,0.61235 1.31466,17.9007 1.87865,19.5471 -1.87865,-19.5471 z"
       id="path19"
       inkscape:export-xdpi="41.774017"
       inkscape:export-ydpi="41.774017" />
    <path
       inkscape:connector-curvature="0"
       style="fill:none;fill-rule:evenodd;stroke:#ffffff;stroke-width:3;stroke-opacity:1;stroke-miterlimit:4;stroke-dasharray:none"
       d="m 226.39174,165.59471 14.89479,-1.42756 -0.20483,-0.63106 0.20483,0.63106 12.00837,-1.15092 -12.00837,1.15092 2.94716,9.07993 -16.85048,1.40614 -0.99147,-9.05851 L 222,166.01562 226.39174,165.59471 226,162.01562 Z"
       id="path21"
       inkscape:export-xdpi="41.774017"
       inkscape:export-ydpi="41.774017" />
    <path
       inkscape:connector-curvature="0"
       style="fill:none;fill-rule:evenodd;stroke:#ffffff;stroke-width:3;stroke-opacity:1;stroke-miterlimit:4;stroke-dasharray:none"
       d="M 237.4884,239.41776 237,189.01562 Z"
       id="path23"
       inkscape:export-xdpi="41.774017"
       inkscape:export-ydpi="41.774017" />
    <path
       inkscape:connector-curvature="0"
       style="fill:none;fill-rule:evenodd;stroke:#ffffff;stroke-width:3;stroke-opacity:1;stroke-miterlimit:4;stroke-dasharray:none"
       d="m 295.41143,237.0881 -16.37041,-4.27581 -0.94238,7.58905 0.94238,-7.58905 -6.36066,-1.66134 6.36066,1.66134 3.87785,-31.22863 -0.002,-0.97482 -8.91734,2.40678 8.91734,-2.40678 -0.0448,-28.60778 L 279,152.01562 l 3.87254,19.98544 0.0448,28.60778 15.75601,-4.25253 22.07677,7.0696 0.47152,18.05692 -7.16005,8.68906 z"
       id="path25"
       inkscape:export-xdpi="41.774017"
       inkscape:export-ydpi="41.774017" />
    <path
       inkscape:connector-curvature="0"
       style="fill:none;fill-rule:evenodd;stroke:#ffffff;stroke-width:3;stroke-opacity:1;stroke-miterlimit:4;stroke-dasharray:none"
       d="m 368.89528,235.88581 -25.92044,-1.78762 -0.40736,12.48387 0.40736,-12.48387 -3.17812,-0.21918 3.17812,0.21918 0.72412,-22.1909 -0.37392,-12.25631 -5.32504,1.36464 5.32504,-1.36464 -0.78233,-25.64336 -3.54271,-22.992 3.54271,22.992 0.78233,25.64336 9.70468,-2.487 23.62794,4.50343 -0.5993,24.35177 z"
       id="path27"
       inkscape:export-xdpi="41.774017"
       inkscape:export-ydpi="41.774017" />
    <path
       inkscape:connector-curvature="0"
       style="fill:none;fill-rule:evenodd;stroke:#ffffff;stroke-width:3;stroke-opacity:1;stroke-miterlimit:4;stroke-dasharray:none"
       d="M 404.26678,242.99294 402,150.01562 Z"
       id="path29"
       inkscape:export-xdpi="41.774017"
       inkscape:export-ydpi="41.774017" />
    <path
       inkscape:connector-curvature="0"
       style="fill:none;fill-rule:evenodd;stroke:#ffffff;stroke-width:3;stroke-opacity:1;stroke-miterlimit:4;stroke-dasharray:none"
       d="m 444.89688,219.09854 -1.18936,-17.60821 -6.2188,-0.23767 6.2188,0.23767 L 443,191.01562 l 0.70752,10.47471 11.54547,0.44123 11.20184,4.53782 -3.1546,11.86371 -14.7245,2.0649 -3.67885,-1.29945 0.22169,3.28203 4.57957,18.77273 13.30383,5.76635 11.24741,-4.17693 -11.24741,4.17693 -13.30383,-5.76635 -4.57957,-18.77273 -0.22169,-3.28203 L 439,217.01562 Z"
       id="path31"
       inkscape:export-xdpi="41.774017"
       inkscape:export-ydpi="41.774017" />
    <g
       id="g4169"
       transform="translate(463.6643,-150.55981)"
       style="stroke-width:3;stroke-miterlimit:4;stroke-dasharray:none"
       inkscape:export-xdpi="41.774017"
       inkscape:export-ydpi="41.774017">
      <path
         id="path13"
         d="M 66.352025,304.19911 43.855873,303.37617 43.447828,324.21492 54.766695,323.98549 54,315.01562 l 0.766695,8.96987 14.497713,-0.29386 z"
         style="fill:#bae3ff;fill-rule:evenodd;stroke:#000000;stroke-width:3;stroke-opacity:1;stroke-miterlimit:4;stroke-dasharray:none"
         inkscape:connector-curvature="0" />
      <path
         id="path33"
         d="m 43.855873,303.37617 22.496152,0.82294 -0.710446,-4.75499 0.710446,4.75499 14.896921,0.54496 -14.896921,-0.54496 2.912383,19.49252 -14.497713,0.29386 2.620323,30.65617 -8.141897,28.4039 -20.292547,10.55151 20.292547,-10.55151 8.141897,-28.4039 -2.620323,-30.65617 -11.318867,0.22943 0.408045,-20.83875 L 34,303.01562 43.855873,303.37617 44,296.01562 Z"
         style="fill:none;fill-rule:evenodd;stroke:#ffffff;stroke-width:3;stroke-opacity:1;stroke-miterlimit:4;stroke-dasharray:none"
         inkscape:connector-curvature="0" />
      <path
         id="path35"
         d="M 120.82295,333.8157 154,326.01562 l -33.17705,7.80008 -6.06838,24.98393 31.5695,0.66655 21.83524,5.27 -4.33427,19.76424 -22.22693,16.50566 -26.41222,-8.8425 -7.2538,-7.88384 7.2538,7.88384 26.41222,8.8425 22.22693,-16.50566 4.33427,-19.76424 -21.83524,-5.27 -31.5695,-0.66655 z"
         style="fill:none;fill-rule:evenodd;stroke:#ffffff;stroke-width:3;stroke-opacity:1;stroke-miterlimit:4;stroke-dasharray:none"
         inkscape:connector-curvature="0" />
    </g>
    <path
       inkscape:connector-curvature="0"
       style="fill:#e3ffba;fill-rule:evenodd;stroke:#000000;stroke-width:1px;stroke-opacity:1"
       d="m 535.04475,274.08347 -15.37165,12.43522 -14.66597,-8.93134 -37.32181,31.14636 19.78235,16.28333 34.58698,-9.04782 19.76083,-24.43819 z"
       id="path5-9"
       inkscape:export-xdpi="41.774017"
       inkscape:export-ydpi="41.774017" />
    <path
       inkscape:connector-curvature="0"
       style="fill:#ffbae3;fill-rule:evenodd;stroke:#000000;stroke-width:1px;stroke-opacity:1"
       d="m 595.08468,291.33663 -17.93378,-17.26243 -15.17623,-7.47403 -20.15919,24.93086 14.05296,36.21319 z"
       id="path7-0"
       inkscape:export-xdpi="41.774017"
       inkscape:export-ydpi="41.774017" />
    <path
       inkscape:connector-curvature="0"
       style="fill:#bae3ff;fill-rule:evenodd;stroke:#000000;stroke-width:1px;stroke-opacity:1"
       d="m 396.81972,307.94334 -27.45394,-11.51812 -8.44958,-11.59188 -30.47523,20.98599 16.48278,21.0921 38.77204,9.47959 z"
       id="path9-3"
       inkscape:export-xdpi="41.774017"
       inkscape:export-ydpi="41.774017" />
    <path
       inkscape:connector-curvature="0"
       style="fill:#bae3ff;fill-rule:evenodd;stroke:#000000;stroke-width:1px;stroke-opacity:1"
       d="m 445.54884,280.02381 -18.70255,12.311 -7.33775,11.8182 19.90683,28.17297 28.26995,-23.59227 -12.16252,-10.01128 z"
       id="path11-5"
       inkscape:export-xdpi="41.774017"
       inkscape:export-ydpi="41.774017" />
    <path
       inkscape:connector-curvature="0"
       style="fill:#e3ffba;fill-rule:evenodd;stroke:#000000;stroke-width:1px;stroke-opacity:1"
       d="m 278.87428,276.13729 -10.22219,6.4927 -18.50248,6.11649 -7.98504,-8.09535 -25.10261,25.98108 32.82857,11.33064 31.55763,-7.29776 15.55771,-6.55734 z"
       id="path13-1"
       inkscape:export-xdpi="41.774017"
       inkscape:export-ydpi="41.774017" />
    <path
       inkscape:connector-curvature="0"
       style="fill:#bae3ff;fill-rule:evenodd;stroke:#000000;stroke-width:1px;stroke-opacity:1"
       d="m 321.15069,293.93106 -24.14482,10.17669 11.08601,17.1017 22.34909,-15.39012 z"
       id="path15-6"
       inkscape:export-xdpi="41.774017"
       inkscape:export-ydpi="41.774017" />
    <path
       inkscape:connector-curvature="0"
       style="fill:#bae3ff;fill-rule:evenodd;stroke:#000000;stroke-width:1px;stroke-opacity:1"
       d="m 101.93374,304.40551 32.07304,14.86893 36.4038,-0.71256 19.39863,-9.96789 -21.15815,-26.79919 -6.62068,3.45601 6.62068,-3.45601 -13.49847,-17.09733 -22.79441,17.00754 15.28187,11.99325 -15.28187,-11.99325 z"
       id="path17-3"
       inkscape:export-xdpi="41.774017"
       inkscape:export-ydpi="41.774017" />
    <path
       inkscape:connector-curvature="0"
       style="fill:#bae3ff;fill-rule:evenodd;stroke:#000000;stroke-width:1px;stroke-opacity:1"
       d="m 203.04331,301.79373 -13.2341,6.80026 11.40275,14.44287 15.85,-16.40465 z"
       id="path19-5"
       inkscape:export-xdpi="41.774017"
       inkscape:export-ydpi="41.774017" />
    <path
       inkscape:connector-curvature="0"
       style="fill:#bae3ff;fill-rule:evenodd;stroke:#000000;stroke-width:1px;stroke-opacity:1"
       d="M 34.795864,284.50715 7.4518587,297.99896 34.234432,312.91221 56.287628,305.72558 Z"
       id="path21-2"
       inkscape:export-xdpi="41.774017"
       inkscape:export-ydpi="41.774017" />
    <path
       inkscape:connector-curvature="0"
       style="fill:#bae3ff;fill-rule:evenodd;stroke:#000000;stroke-width:1px;stroke-opacity:1"
       d="m 84.764122,296.44575 -28.476494,9.27983 18.88634,18.64614 26.759772,-19.96621 z"
       id="path23-3"
       inkscape:export-xdpi="41.774017"
       inkscape:export-ydpi="41.774017" />
    <path
       inkscape:connector-curvature="0"
       style="fill:#ffbae3;fill-rule:evenodd;stroke:#000000;stroke-width:1px;stroke-opacity:1"
       d="m 132.35818,281.70501 -22.30853,-17.50779 -43.331276,4.55904 -31.92251,15.75089 21.491764,21.21843 28.476494,-9.27983 17.169618,7.95976 z"
       id="path25-2"
       inkscape:export-xdpi="41.774017"
       inkscape:export-ydpi="41.774017" />
    <path
       inkscape:connector-curvature="0"
       style="fill:#ffbae3;fill-rule:evenodd;stroke:#000000;stroke-width:1px;stroke-opacity:1"
       d="m 242.16457,280.65113 -14.0866,-14.2812 -29.28624,-0.30862 -30.14067,15.73349 21.15815,26.79919 13.2341,-6.80026 14.01865,4.83848 z"
       id="path27-9"
       inkscape:export-xdpi="41.774017"
       inkscape:export-ydpi="41.774017" />
    <path
       inkscape:connector-curvature="0"
       style="fill:#ffbae3;fill-rule:evenodd;stroke:#000000;stroke-width:1px;stroke-opacity:1"
       d="m 360.9162,284.83334 -17.31856,-23.75919 -44.90883,2.47778 -19.81453,12.58536 18.13159,27.97046 24.14482,-10.17669 9.29028,11.88827 z"
       id="path29-5"
       inkscape:export-xdpi="41.774017"
       inkscape:export-ydpi="41.774017" />
    <path
       inkscape:connector-curvature="0"
       style="fill:#bae3ff;fill-rule:evenodd;stroke:#000000;stroke-width:1px;stroke-opacity:1"
       d="m 268.65209,282.62999 10.22219,-6.4927 -12.98887,-20.03711 -23.72084,24.55095 7.98504,8.09535 z"
       id="path31-9"
       inkscape:export-xdpi="41.774017"
       inkscape:export-ydpi="41.774017" />
    <path
       inkscape:connector-curvature="0"
       style="fill:#ffbae3;fill-rule:evenodd;stroke:#000000;stroke-width:1px;stroke-opacity:1"
       d="m 505.00713,277.58735 -15.91193,-9.69011 -19.94923,-3.40629 -23.59713,15.53286 9.97396,18.69862 12.16252,10.01128 z"
       id="path33-8"
       inkscape:export-xdpi="41.774017"
       inkscape:export-ydpi="41.774017" />
    <path
       inkscape:connector-curvature="0"
       style="fill:#ffbae3;fill-rule:evenodd;stroke:#000000;stroke-width:1px;stroke-opacity:1"
       d="m 369.36578,296.42522 27.45394,11.51812 6.61114,-16.90694 4.12919,-3.79337 -16.41255,-23.22772 -30.2313,20.81803 z"
       id="path35-2"
       inkscape:export-xdpi="41.774017"
       inkscape:export-ydpi="41.774017" />
    <path
       inkscape:connector-curvature="0"
       style="fill:#bae3ff;fill-rule:evenodd;stroke:#000000;stroke-width:1px;stroke-opacity:1"
       d="m 412.95273,314.71185 6.55581,-10.55884 -11.94849,-16.90998 -4.12919,3.79337 -6.61114,16.90694 z"
       id="path37"
       inkscape:export-xdpi="41.774017"
       inkscape:export-ydpi="41.774017" />
    <path
       inkscape:connector-curvature="0"
       style="fill:#ffbae3;fill-rule:evenodd;stroke:#000000;stroke-width:1px;stroke-opacity:1"
       d="m 426.84629,292.33481 18.70255,-12.311 -9.90904,-18.57695 -28.07975,25.79617 11.94849,16.90998 z"
       id="path39"
       inkscape:export-xdpi="41.774017"
       inkscape:export-ydpi="41.774017" />
    <path
       inkscape:connector-curvature="0"
       style="fill:#bae3ff;fill-rule:evenodd;stroke:#000000;stroke-width:1px;stroke-opacity:1"
       d="m 561.97467,266.60017 -10.98945,-5.4121 -15.94047,12.8954 6.77073,17.44756 z"
       id="path41"
       inkscape:export-xdpi="41.774017"
       inkscape:export-ydpi="41.774017" />
    <path
       inkscape:connector-curvature="0"
       style="fill:#bae3ff;fill-rule:evenodd;stroke:#000000;stroke-width:1px;stroke-opacity:1"
       d="m 519.6731,286.51869 15.37165,-12.43522 -6.32095,-16.2885 -23.71667,19.79238 z"
       id="path43"
       inkscape:export-xdpi="41.774017"
       inkscape:export-ydpi="41.774017" />
    <path
       inkscape:connector-curvature="0"
       style="fill:#e3ffba;fill-rule:evenodd;stroke:#000000;stroke-width:1px;stroke-opacity:1"
       d="m 577.1509,274.0742 17.93378,17.26243 14.92282,-13.85406 -10.09223,-11.27291 -33.12264,-5.56784 -4.81796,5.95835 z"
       id="path45"
       inkscape:export-xdpi="41.774017"
       inkscape:export-ydpi="41.774017" />
    <path
       inkscape:connector-curvature="0"
       style="fill:#bae3ff;fill-rule:evenodd;stroke:#000000;stroke-width:1px;stroke-opacity:1"
       d="M 614.7835,310.29801 627.45198,296.9679 610.0075,277.48257 595.08468,291.33663 Z"
       id="path47"
       inkscape:export-xdpi="41.774017"
       inkscape:export-ydpi="41.774017" />
    <path
       inkscape:connector-curvature="0"
       style="fill:none;fill-rule:evenodd;stroke:#ffffff;stroke-width:1px;stroke-opacity:1"
       d="m 627.45198,296.9679 -12.66848,13.33011 -19.69882,-18.96138 -39.21624,36.40759 -14.05296,-36.21319 -19.76083,24.43819 -34.58698,9.04782 -19.78235,-16.28333 -28.26995,23.59227 -19.90683,-28.17297 -6.55581,10.55884 -16.13301,-6.76851 -11.12393,28.44768 -38.77204,-9.47959 -16.48278,-21.0921 -22.34909,15.39012 -11.08601,-17.1017 -15.55771,6.55734 -31.55763,7.29776 -32.82857,-11.33064 -15.85,16.40465 -11.40275,-14.44287 -19.39863,9.96789 -36.4038,0.71256 -32.07304,-14.86893 -26.759772,19.96621 -18.88634,-18.64614 -22.053196,7.18663 -26.7825733,-14.91325 27.3440053,-13.49181 -16.480411,-16.27082 16.480411,16.27082 31.92251,-15.75089 43.331276,-4.55904 22.30853,17.50779 22.79441,-17.00754 13.49847,17.09733 30.14067,-15.73349 29.28624,0.30862 14.0866,14.2812 23.72084,-24.55095 12.98887,20.03711 19.81453,-12.58536 44.90883,-2.47778 17.31856,23.75919 30.2313,-20.81803 16.41255,23.22772 28.07975,-25.79617 9.90904,18.57695 23.59713,-15.53286 19.94923,3.40629 15.91193,9.69011 23.71667,-19.79238 6.32095,16.2885 15.94047,-12.8954 10.98945,5.4121 4.81796,-5.95835 33.12264,5.56784 10.09223,11.27291 18.97804,-17.61884 -18.97804,17.61884 17.44448,19.48533 14.79091,-15.56338 -14.79091,15.56338 13.62817,15.22251 z"
       id="path49"
       inkscape:export-xdpi="41.774017"
       inkscape:export-ydpi="41.774017" />
  </g>
</svg>
